<svg id="Layer_1" enable-background="new 0 0 512 512" height="512" viewBox="0 0 512 512" width="512" xmlns="http://www.w3.org/2000/svg"><path d="m460.437 247.967c.477 5.559.736 11.197.799 16.8l3.35-4.219c2.748-3.46 7.78-4.038 11.24-1.291 3.46 2.748 4.038 7.78 1.291 11.24l-18.194 22.915c-1.518 1.912-3.826 3.025-6.265 3.025-.018 0-.036 0-.053 0-2.459-.017-4.774-1.163-6.278-3.109l-17.887-23.155c-2.701-3.497-2.056-8.521 1.44-11.222 3.497-2.702 8.521-2.057 11.222 1.44l4.145 5.366c-.04-5.473-.284-10.989-.751-16.423-.377-4.402 2.885-8.277 7.287-8.654 4.4-.375 8.276 2.885 8.654 7.287zm-345.837-149.14c1.585 0 3.186-.47 4.582-1.448 4.19-2.934 8.505-5.708 12.91-8.331l-2.363 5.456c-1.756 4.054.107 8.765 4.161 10.521 1.036.449 2.114.661 3.176.661 3.092 0 6.038-1.804 7.345-4.822l11.629-26.849c.978-2.257.863-4.837-.311-6.999-1.174-2.161-3.277-3.662-5.702-4.07l-28.853-4.856c-4.349-.73-8.483 2.204-9.217 6.562-.733 4.357 2.205 8.483 6.562 9.217l6.08 1.023c-4.986 2.943-9.864 6.069-14.595 9.382-3.619 2.535-4.499 7.523-1.964 11.142 1.556 2.222 4.038 3.411 6.56 3.411zm293.1 49.427c1.557 2.216 4.035 3.401 6.552 3.401 1.589 0 3.194-.472 4.593-1.455 3.615-2.54 4.486-7.53 1.946-11.145-7.385-10.51-15.741-20.456-24.836-29.562-3.123-3.127-8.188-3.13-11.313-.007-3.126 3.122-3.129 8.188-.007 11.313 8.446 8.458 16.207 17.695 23.065 27.455zm-379.788 70.868c.694.186 1.391.275 2.076.275 3.532 0 6.764-2.357 7.722-5.931 3.09-11.527 7.218-22.863 12.269-33.693 1.868-4.004.136-8.764-3.869-10.631-4.003-1.868-8.765-.136-10.631 3.869-5.444 11.672-9.893 23.89-13.223 36.313-1.144 4.267 1.388 8.655 5.656 9.798zm-3.776 74.739c4.402-.378 7.665-4.252 7.287-8.654-.509-5.935-.767-11.969-.767-17.936 0-5.954.258-11.989.768-17.937.377-4.402-2.886-8.276-7.288-8.654-4.408-.376-8.276 2.886-8.654 7.288-.548 6.4-.827 12.895-.827 19.303 0 6.421.278 12.915.826 19.303.358 4.17 3.853 7.316 7.961 7.316.23.001.462-.009.694-.029zm301.569-214.441c10.796 5.051 21.239 11.092 31.037 17.954 1.397.979 2.997 1.448 4.583 1.448 2.521 0 5.003-1.189 6.56-3.411 2.535-3.619 1.655-8.607-1.963-11.142-10.554-7.391-21.803-13.898-33.435-19.34-4.004-1.874-8.764-.146-10.636 3.856-1.875 4.001-.148 8.763 3.854 10.635zm112.5 134.049c.958 3.573 4.19 5.929 7.722 5.929.686 0 1.383-.089 2.078-.275 4.267-1.145 6.799-5.532 5.654-9.799-3.332-12.419-7.781-24.636-13.226-36.309-1.868-4.004-6.628-5.737-10.631-3.869-4.004 1.868-5.736 6.627-3.869 10.631 5.052 10.833 9.181 22.168 12.272 33.692zm-381.13-63.268c1.399.983 3.003 1.455 4.593 1.455 2.517 0 4.995-1.185 6.552-3.401 6.865-9.769 14.625-19.006 23.064-27.455 3.122-3.126 3.12-8.191-.006-11.314-3.126-3.122-8.191-3.119-11.314.006-9.087 9.097-17.442 19.044-24.834 29.563-2.541 3.616-1.67 8.606 1.945 11.146zm299.662 286.962c-9.791 6.857-20.232 12.898-31.035 17.955-4.002 1.872-5.728 6.635-3.854 10.637 1.36 2.905 4.242 4.61 7.251 4.61 1.135 0 2.29-.243 3.386-.757 11.638-5.446 22.886-11.953 33.432-19.34 3.619-2.535 4.498-7.523 1.963-11.143-2.536-3.617-7.525-4.494-11.143-1.962zm-65.245 30.414c-11.517 3.07-23.398 5.153-35.314 6.19-4.401.383-7.659 4.262-7.276 8.663.362 4.166 3.856 7.307 7.961 7.307.232 0 .467-.01.702-.03 12.837-1.117 25.639-3.361 38.049-6.671 4.269-1.138 6.807-5.521 5.669-9.791-1.139-4.267-5.518-6.809-9.791-5.668zm-71.751 6.191c-5.955-.518-11.905-1.299-17.806-2.334l6.439-2.49c4.121-1.594 6.17-6.226 4.577-10.347-1.594-4.121-6.225-6.168-10.347-4.577l-27.291 10.551c-2.294.887-4.052 2.779-4.769 5.133-.716 2.353-.31 4.903 1.101 6.918l16.784 23.967c1.556 2.223 4.038 3.412 6.56 3.412 1.584 0 3.186-.47 4.582-1.448 3.619-2.534 4.499-7.522 1.964-11.142l-3.042-4.344c6.581 1.175 13.217 2.062 19.86 2.64.236.021.47.03.702.03 4.105 0 7.599-3.141 7.961-7.307.384-4.401-2.873-8.28-7.275-8.662zm-169.755-119.003c-5.051-10.83-9.18-22.166-12.272-33.692-1.145-4.268-5.533-6.802-9.799-5.653-4.268 1.145-6.799 5.532-5.654 9.8 3.332 12.422 7.782 24.638 13.224 36.308 1.357 2.911 4.243 4.621 7.256 4.621 1.132 0 2.282-.241 3.376-.752 4.004-1.869 5.737-6.628 3.869-10.632zm446.286 56.015c-1.429 2.476-4.07 4-6.928 4h-112.308c-2.858 0-5.499-1.524-6.928-4s-1.429-5.524 0-8l56.154-97.262c1.429-2.476 4.07-4 6.928-4s5.499 1.524 6.928 4l56.154 97.262c1.429 2.476 1.429 5.525 0 8zm-20.785-12-42.298-73.262-42.297 73.262zm-318.407 34.167c0 31.227-25.404 56.631-56.631 56.631s-56.631-25.404-56.631-56.631 25.404-56.631 56.631-56.631 56.631 25.405 56.631 56.631zm-16 0c0-22.404-18.227-40.631-40.631-40.631s-40.631 18.227-40.631 40.631 18.227 40.631 40.631 40.631 40.631-18.226 40.631-40.631zm40.248-345.011v-71.936c0-4.418 3.582-8 8-8h97.262c4.418 0 8 3.582 8 8v71.936c0 4.418-3.582 8-8 8h-97.262c-4.418 0-8-3.582-8-8zm16-8h81.262v-55.936h-81.262zm144.665 267.915-23.453 23.455c-2.34 2.34-5.878 2.999-8.904 1.654l-16.129-7.164c-7.948 4.491-16.381 7.987-25.161 10.431l-6.336 16.461c-1.188 3.088-4.156 5.126-7.466 5.126h-33.168c-3.31 0-6.277-2.038-7.466-5.126l-6.338-16.466c-8.775-2.442-17.204-5.938-25.152-10.429l-16.137 7.167c-3.022 1.343-6.563.687-8.904-1.654l-23.454-23.453c-2.34-2.341-2.998-5.88-1.654-8.904l7.164-16.13c-4.491-7.947-7.987-16.38-10.431-25.161l-16.46-6.336c-3.089-1.188-5.126-4.156-5.126-7.466v-33.168c0-3.31 2.038-6.277 5.126-7.466l16.463-6.337c2.444-8.779 5.939-17.209 10.429-25.156l-7.166-16.134c-1.344-3.024-.686-6.563 1.654-8.904l23.454-23.454c2.339-2.34 5.88-2.999 8.904-1.654l16.136 7.167c7.948-4.491 16.377-7.985 25.153-10.428l6.338-16.466c1.188-3.088 4.156-5.126 7.466-5.126h33.167c3.31 0 6.277 2.038 7.466 5.126l6.338 16.465c8.775 2.443 17.206 5.938 25.152 10.428l16.137-7.167c3.023-1.341 6.563-.686 8.904 1.655l23.454 23.454c2.34 2.34 2.998 5.879 1.654 8.904l-7.164 16.129c4.491 7.948 7.987 16.381 10.431 25.161l16.46 6.336c3.089 1.188 5.126 4.156 5.126 7.466v33.168c0 3.31-2.038 6.277-5.126 7.466l-16.466 6.339c-2.443 8.775-5.938 17.204-10.428 25.152l7.167 16.136c1.344 3.024.686 6.563-1.654 8.903zm-4.673-63.645 15.181-5.844v-22.183l-15.176-5.841c-2.462-.947-4.298-3.048-4.909-5.614-2.379-9.999-6.325-19.517-11.727-28.289-1.384-2.247-1.571-5.031-.5-7.442l6.605-14.873-15.686-15.686-14.88 6.608c-2.411 1.072-5.195.884-7.442-.499-8.773-5.402-18.288-9.347-28.281-11.725-2.566-.611-4.667-2.447-5.614-4.909l-5.843-15.181h-22.182l-5.844 15.181c-.947 2.461-3.048 4.298-5.614 4.909-9.992 2.377-19.507 6.323-28.282 11.725-2.247 1.383-5.031 1.571-7.441.499l-14.879-6.608-15.686 15.686 6.607 14.878c1.071 2.411.884 5.196-.5 7.442-5.401 8.771-9.347 18.286-11.726 28.283-.611 2.566-2.447 4.667-4.909 5.614l-15.179 5.843v22.182l15.176 5.842c2.462.947 4.298 3.048 4.909 5.614 2.379 9.999 6.325 19.517 11.727 28.288 1.384 2.247 1.571 5.031.5 7.442l-6.606 14.874 15.686 15.685 14.88-6.608c2.41-1.072 5.195-.884 7.441.499 8.775 5.403 18.291 9.349 28.281 11.725 2.566.611 4.667 2.447 5.614 4.909l5.844 15.182h22.182l5.842-15.177c.948-2.462 3.048-4.298 5.614-4.909 9.998-2.378 19.515-6.323 28.288-11.727 2.246-1.383 5.03-1.571 7.443-.5l14.873 6.606 15.686-15.686-6.609-14.88c-1.071-2.411-.884-5.195.5-7.441 5.402-8.774 9.348-18.289 11.725-28.281.613-2.565 2.45-4.666 4.911-5.613zm-33.516-16.935c0 36.307-29.538 65.845-65.845 65.845s-65.845-29.538-65.845-65.845 29.538-65.845 65.845-65.845 65.845 29.538 65.845 65.845zm-16 0c0-27.485-22.36-49.845-49.845-49.845s-49.845 22.36-49.845 49.845c0 27.484 22.36 49.845 49.845 49.845s49.845-22.36 49.845-49.845z"/></svg>