<svg id="Capa_1" enable-background="new 0 0 512 512" height="512" viewBox="0 0 512 512" width="512" xmlns="http://www.w3.org/2000/svg"><g><path d="m504.5 257c4.142 0 7.5-3.358 7.5-7.5v-30c0-20.678-16.822-37.5-37.5-37.5h-56.461l-129.213-82.86c1.404-3.784 2.174-7.873 2.174-12.14 0-19.299-15.701-35-35-35s-35 15.701-35 35c0 4.267.77 8.356 2.174 12.141l-128.634 82.488c-.181.116-.351.242-.518.371h-56.522c-20.678 0-37.5 16.822-37.5 37.5v203c0 20.678 16.822 37.5 37.5 37.5h437c20.678 0 37.5-16.822 37.5-37.5v-138c0-4.142-3.358-7.5-7.5-7.5s-7.5 3.358-7.5 7.5v138c0 12.407-10.093 22.5-22.5 22.5h-437c-12.407 0-22.5-10.093-22.5-22.5v-203c0-12.407 10.093-22.5 22.5-22.5h437c12.407 0 22.5 10.093 22.5 22.5v30c0 4.142 3.358 7.5 7.5 7.5zm-248.5-190c11.028 0 20 8.972 20 20s-8.972 20-20 20-20-8.972-20-20 8.972-20 20-20zm-24.715 44.759c6.336 6.324 15.076 10.241 24.715 10.241s18.379-3.917 24.715-10.241l109.535 70.241h-268.501z"/><path d="m111 430h358.5c6.893 0 12.5-5.607 12.5-12.5v-193c0-6.893-5.607-12.5-12.5-12.5h-427c-6.893 0-12.5 5.607-12.5 12.5v193c0 6.893 5.607 12.5 12.5 12.5h33.5c4.142 0 7.5-3.358 7.5-7.5s-3.357-7.5-7.5-7.5h-31v-188h422v188h-356c-4.142 0-7.5 3.358-7.5 7.5s3.358 7.5 7.5 7.5z"/><path d="m359.851 272.317c-3.134.977-5.268 3.878-5.268 7.16v83.202c0 4.142 3.358 7.5 7.5 7.5s7.5-3.358 7.5-7.5v-59.143l42.586 61.667c2.32 3.35 6.146 4.789 9.741 3.666 3.697-1.155 6.085-4.688 6.085-9.073l-.779-80.548c-.04-4.117-3.39-7.427-7.498-7.427-.024 0-.049 0-.074 0-4.142.04-7.467 3.43-7.427 7.572l.583 60.327-44.546-64.505c-1.864-2.701-5.269-3.875-8.403-2.898z"/><path d="m326.727 287.202c4.142 0 7.5-3.358 7.5-7.5s-3.358-7.5-7.5-7.5h-34.803c-4.142 0-7.5 3.358-7.5 7.5v82.597c0 4.142 3.358 7.5 7.5 7.5h34.803c4.142 0 7.5-3.358 7.5-7.5s-3.358-7.5-7.5-7.5h-27.303v-26.299h24.737c4.142 0 7.5-3.358 7.5-7.5s-3.358-7.5-7.5-7.5h-24.737v-26.298z"/><path d="m217.298 362.679v-28.749c5.29-.029 12.122-.062 15.71-.062 17.36 0 31.484-13.917 31.484-31.023s-14.124-31.023-31.484-31.023h-23.21c-4.086 0-7.5 3.415-7.5 7.5v83.357c0 4.142 3.358 7.5 7.5 7.5s7.5-3.358 7.5-7.5zm15.71-75.858c8.936 0 16.484 7.338 16.484 16.023s-7.549 16.023-16.484 16.023c-3.572 0-10.311.032-15.591.061-.029-5.432-.062-12.437-.062-16.084 0-3.085-.019-10.368-.035-16.023z"/><path d="m182.362 321c0-27.117-22.062-49.179-49.179-49.179s-49.178 22.062-49.178 49.179 22.062 49.179 49.179 49.179 49.178-22.062 49.178-49.179zm-83.357 0c0-18.846 15.333-34.179 34.179-34.179s34.179 15.333 34.179 34.179-15.333 34.179-34.179 34.179-34.179-15.333-34.179-34.179z"/></g></svg>