<svg xmlns="http://www.w3.org/2000/svg" version="1.1" xmlns:xlink="http://www.w3.org/1999/xlink" width="512" height="512" x="0" y="0" viewBox="0 0 512 512" style="enable-background:new 0 0 512 512" xml:space="preserve" class=""><g><path d="M366.884 262.048c-13.106.001-23.767 10.662-23.767 23.766 0 13.105 10.662 23.766 23.767 23.766 13.105 0 23.766-10.661 23.766-23.766.001-13.104-10.66-23.766-23.766-23.766zm-.001 32.534c-4.835 0-8.769-3.934-8.769-8.768 0-4.834 3.934-8.768 8.769-8.768 4.836.001 8.768 3.934 8.768 8.768s-3.933 8.768-8.768 8.768zM284.082 410.503H261a7.498 7.498 0 0 0-7.499 7.499 7.498 7.498 0 0 0 7.499 7.499h23.083a7.5 7.5 0 1 0-.001-14.998zM316.369 415.136c-.189-.461-.921-1.721-1.62-2.44-1.739-1.74-4.33-2.54-6.768-2.05a7.69 7.69 0 0 0-2.7 1.12c-.41.27-.79.59-1.14.93-.34.35-.66.729-.931 1.14a7.722 7.722 0 0 0-1.12 2.7c-.492 2.632.393 5.111 2.051 6.77a7.499 7.499 0 0 0 2.439 1.619c.861.364 1.864.58 2.87.58 4.219 0 7.499-3.467 7.499-7.499a7.48 7.48 0 0 0-.58-2.87zM350.998 130.775l13.205-13.204a7.5 7.5 0 0 0 0-10.606 7.5 7.5 0 0 0-10.606 0l-18.507 18.507a7.498 7.498 0 0 0 0 10.605l18.507 18.507a7.5 7.5 0 1 0 10.606-10.605l-13.205-13.204zM444.551 125.474l-18.507-18.507a7.5 7.5 0 0 0-10.606 0 7.498 7.498 0 0 0 0 10.605l13.205 13.204-13.205 13.205c-4.739 4.74-1.318 12.803 5.302 12.803 5.368 0 5.803-3.675 23.81-20.704a7.498 7.498 0 0 0 .001-10.606zM401.968 96.827a7.499 7.499 0 0 0-9.612 4.483l-20.786 57.109a7.5 7.5 0 0 0 14.094 5.129l20.786-57.109a7.501 7.501 0 0 0-4.482-9.612zM136.693 294.043c.014.012.013.011 0 0z" fill="#e09512" opacity="1" data-original="#000000"></path><path d="M492.136 221.82c-260.677.842-251.332-2.093-259.595 2.397a19.82 19.82 0 0 0-10.369 17.425v10.605l-20.523-12.48v-5.28c27.101-14.181 44.883-41.466 44.883-74.266v-.114c3.893-.83 7.567-2.307 10.874-4.4.263-.135.52-.286.77-.455 7.969-5.366 12.029-13.331 12.22-21.162-.082-.309 1.018-10.348-8.085-19.145 5.948-27.986 3.947-50.187-5.995-66.016-9.565-15.23-23.773-20.301-31.392-21.967-.978-.214-1.83-.723-2.399-1.433C201.391-.805 154.475-7.765 113.39 9.343a7.5 7.5 0 0 0 5.765 13.847c34.573-14.396 74.841-9.246 91.669 11.729 2.708 3.375 6.576 5.753 10.892 6.698 5.321 1.165 15.242 4.7 21.897 15.292 7.302 11.627 8.949 28.539 4.941 50.336-2.748-.762-8.671-1.714-11.424-1.08-2.723.329-14.536 1.083-22.667-9.229-4.8-6.086-13.43-7.325-19.646-2.819-16.68 12.088-64.096 30.953-105.08 12.944-1.386-.845-2.652-1.075-3.997-1.094-.129.002-.024-.017-.631.014a35.354 35.354 0 0 0-9.614 1.451C69.844 82.94 73.752 58.09 91.95 40.65l.003-.003a7.498 7.498 0 0 0 .223-10.602 7.501 7.501 0 0 0-10.605-.223c-23.486 22.517-28.226 54.9-19.561 85.472-15.497 15.499-6.624 40.151 16.395 44.87.351 8.036.965 15.183 1.996 19.54 3.116 13.154 9.181 25.048 18.033 35.36 7.009 8.149 15.19 14.749 24.198 19.624v5.014l-34.276 20.221c-.101.028-31.04 8.593-29.06 8.051-17.2 4.637-28.978 16.869-32.312 33.562a8.946 8.946 0 0 0-.05.277L.558 465.763C-3.345 490.028 15.411 512 39.95 512h245.313c9.234 0 18.06-3.25 25.034-9.069 3.81 5.472 10.137 9.069 17.296 9.069h78.943c11.618 0 21.07-9.452 21.07-21.07 0-11.619-9.452-21.071-21.07-21.071h-2.919v-11.458h30.08a7.498 7.498 0 0 0 7.499-7.499 7.498 7.498 0 0 0-7.499-7.499h-30.08v-98.49c6.686-3.801 3.97-14.018-3.698-14.018h-64.793c-8.203 0-10.421 11.364-2.815 14.447v98.061c-99.702 0-91.879.438-93.731-1.415-2.045-2.045-1.412 10.033-1.412-200.346a4.822 4.822 0 0 1 4.824-4.823c266.489.206 250.418-.517 252.436.578a4.83 4.83 0 0 1 2.529 4.246v196.936a4.824 4.824 0 0 1-2.529 4.247c-1.865 1.014-1.284.388-25.736.578a7.498 7.498 0 0 0-7.499 7.499 7.498 7.498 0 0 0 7.499 7.499c22.311-.616 29.281 2.372 37.457-5.805a19.689 19.689 0 0 0 5.807-14.018V241.642c.002-10.99-8.916-19.822-19.82-19.822zm-245.598-99.443c11.632 4.655 11.973 17.311 0 22.102v-22.102zm-168.519 22.05c-11.875-4.846-11.497-17.403.114-22.049a828.38 828.38 0 0 0-.114 22.049zm269.292 201.494h41.309V469.86h-41.309V345.921zm-14.998 112.481v11.458c-4.118.068-5.156-.174-8.055.29-.223-3.154-.53-4.054-1.721-11.748h9.776zm-4.719 26.456h78.943a6.078 6.078 0 0 1 6.071 6.072 6.077 6.077 0 0 1-6.071 6.071h-78.943a6.078 6.078 0 0 1-6.072-6.071 6.078 6.078 0 0 1 6.072-6.072zM220.266 268.642l-32.354 25.765c14.102-35.862 13.92-34.469 13.735-37.087l18.619 11.322zm-110.457-63.353c-20.606-24.003-16.122-46.08-16.676-80.911 37.372 12.013 83.855.744 109.913-17.705 9.02 11.13 20.615 14.008 28.494 14.524.003 3.653-.045 17.316-.008 39.038.001 63.74-79.857 93.725-121.723 45.054zm31.365 58.602-3.542-9.147v-13.791c15.874 4.804 32.886 4.675 49.018-.284v15.991l-2.833 7.197a38.173 38.173 0 0 1-42.643.034zm34.865 19.733L163.7 314.978c-.407 1.036-1.475.991-1.375.936-1.008-.002-1.14-.363-1.389-.986-.042-.105-12.089-31.216-12.133-31.333a52.904 52.904 0 0 0 27.236.029zm-53.347-26.543c.264 2.094 1.048 2.787 14.106 37.047l-.889-.721.784.636-32.274-26.181 18.273-10.781zm13.16 36.28c-.226-.183-.167-.135 0 0zm-76.467-25.403c-.21.073-.417.156-.62.248.122-.056.326-.152.62-.248zm66.665 229.044v-26.348c13.779 2.294 24.809 12.828 27.835 26.348H126.05zm72.439 0h-27.956c3.035-13.561 14.12-24.117 27.956-26.369v26.369zm2.324-41.698c-16.272 1.051-30.414 10.025-38.604 23.101-8.169-13.041-22.259-22.001-38.478-23.091a21.724 21.724 0 0 0-5.459-6.895c9.335-8.025 14.727-20.053 17.018-32.097h53.838c2.287 12.02 7.674 24.092 17.083 32.148a21.706 21.706 0 0 0-5.398 6.834zm2.345-46.86a7.498 7.498 0 0 0-7.489-7.117H128.75c-3.977 0-7.262 3.126-7.488 7.095-.005.094-.588 9.48-5.127 18.5-11.081 22.016-31.2 15.213-39.092 16.483l14.336-96.891a7.5 7.5 0 0 0-6.32-8.516c-4.095-.611-7.91 2.224-8.516 6.32l-14.661 99.086H54.15a7.498 7.498 0 0 0-7.499 7.499 7.498 7.498 0 0 0 7.499 7.499h50.308a6.6 6.6 0 0 1 6.593 6.573v32.027h-71.1c-15.31-.002-27.022-13.709-24.584-28.858l26.353-163.8c4.659-22.876 26.098-21.883 47.87-29.2l25.555 20.731v48.168a7.498 7.498 0 0 0 7.499 7.499 7.498 7.498 0 0 0 7.499-7.499v-36l17.808 14.446c6.235 11.217 22.471 11.233 28.733.035l17.828-14.198v35.717a7.498 7.498 0 0 0 7.499 7.499 7.498 7.498 0 0 0 7.499-7.499v-47.661l12.661-10.083c.072 162.521-.154 152.111.167 154.728-5.952-2.572-10.601-7.246-14.054-14.108-4.539-9.018-5.122-18.404-5.126-18.475zm104.188 49.958 1.716 10.667c2.359 14.657-8.973 27.934-23.798 27.934H213.49v-32.027a6.6 6.6 0 0 1 6.593-6.573l87.263-.001z" fill="#e09512" opacity="1" data-original="#000000"></path><path d="M483.742 143.427a7.498 7.498 0 0 0-7.499 7.499v40.757c-7.252-5.58-12.028-14.263-23.688-14.263H311.557c-2.439 0-4.5-2.061-4.5-4.5V91.935c0-2.439 2.061-4.5 4.5-4.5h160.185c2.439 0 4.5 2.061 4.5 4.5v23.994a7.5 7.5 0 0 0 14.998 0V91.935c0-10.751-8.747-19.498-19.498-19.498H311.557c-10.751 0-19.498 8.747-19.498 19.498v80.986c0 10.751 8.747 19.498 19.498 19.498h140.997c3.721 0 4.474 2.625 15.508 12.097 8.945 8.126 23.178 1.716 23.178-10.257v-43.333a7.497 7.497 0 0 0-7.498-7.499z" fill="#e09512" opacity="1" data-original="#000000"></path></g></svg>